<svg width="255" height="255" viewBox="0 0 255 255" fill="none" xmlns="http://www.w3.org/2000/svg">
<circle cx="127.5" cy="127.5" r="127.5" fill="white"/>
<path d="M114.778 87.684C114.778 92.1022 118.36 95.684 122.778 95.684C127.196 95.684 130.778 92.1022 130.778 87.684H114.778ZM122.778 76.507L121.688 68.5817C117.728 69.1264 114.778 72.5101 114.778 76.507H122.778ZM122.816 76.5019L123.906 84.4272L123.906 84.4272L122.816 76.5019ZM146.7 55.0453L154.69 55.4335V55.4335L146.7 55.0453ZM126.318 34.0297L126.019 26.0353L126.318 34.0297ZM104.175 59.6604C106.229 63.5723 111.065 65.0784 114.977 63.0245C118.889 60.9707 120.395 56.1345 118.341 52.2226L104.175 59.6604ZM44.0368 197.439C44.8316 201.785 48.9993 204.664 53.3455 203.869C57.6917 203.075 60.5706 198.907 59.7758 194.561L44.0368 197.439ZM127.477 92.3993L127.586 100.399L127.477 92.3993ZM187.981 193.356C186.521 197.526 188.718 202.09 192.888 203.55C197.058 205.011 201.622 202.814 203.082 198.644L187.981 193.356ZM48.3221 178.49C44.3729 180.471 42.7774 185.278 44.7585 189.227C46.7396 193.177 51.5471 194.772 55.4963 192.791L48.3221 178.49ZM215.618 181.582C219.622 183.45 224.382 181.718 226.25 177.714C228.118 173.71 226.386 168.95 222.382 167.082L215.618 181.582ZM130.778 87.684V76.507H114.778V87.684H130.778ZM123.868 84.4324L123.906 84.4272L121.725 68.5765L121.688 68.5817L123.868 84.4324ZM123.906 84.4272C127.075 83.9912 134.333 83.0685 140.925 79.1934C148.08 74.9875 154.103 67.5145 154.69 55.4335L138.709 54.6571C138.407 60.8688 135.751 63.6752 132.817 65.4001C129.32 67.4557 125.081 68.1148 121.725 68.5765L123.906 84.4272ZM154.69 55.4335C155.17 45.5484 152.775 37.3267 146.524 31.9444C140.563 26.8112 132.791 25.7822 126.019 26.0353L126.616 42.0241C131.807 41.8301 134.639 42.8246 136.084 44.0689C137.239 45.064 139.053 47.5736 138.709 54.6571L154.69 55.4335ZM126.019 26.0353C116.818 26.3791 109.852 31.8732 106.003 38.0911C102.342 44.0046 100.409 52.4877 104.175 59.6604L118.341 52.2226C118.115 51.7926 117.731 49.5434 119.607 46.5133C121.294 43.7878 123.855 42.1273 126.616 42.0241L126.019 26.0353ZM59.7758 194.561C57.0667 179.748 61.4141 155.98 73.3916 135.721C85.2486 115.667 103.52 100.725 127.586 100.399L127.369 84.4001C95.8623 84.8272 73.2186 104.576 59.6187 127.578C46.1394 150.377 40.4877 178.033 44.0368 197.439L59.7758 194.561ZM127.586 100.399C146.148 100.147 160.825 108.859 171.5 121.98C182.296 135.248 188.724 152.771 190.24 168.832L206.169 167.329C204.39 148.481 196.922 127.872 183.911 111.882C170.78 95.7435 151.741 84.0696 127.369 84.4001L127.586 100.399ZM190.24 168.832C191.132 178.279 190.282 186.786 187.981 193.356L203.082 198.644C206.332 189.364 207.217 178.435 206.169 167.329L190.24 168.832ZM55.4963 192.791C65.6258 187.71 89.1712 181.271 116.713 177.235C144.111 173.22 174.035 171.797 196.767 175.95L199.642 160.211C174.414 155.601 142.499 157.285 114.393 161.404C86.432 165.502 60.81 172.225 48.3221 178.49L55.4963 192.791ZM196.767 175.95C204.087 177.288 210.436 179.165 215.618 181.582L222.382 167.082C215.619 163.928 207.875 161.715 199.642 160.211L196.767 175.95Z" fill="#004AAD"/>
</svg>
