<svg width="1790" height="1060" viewBox="0 0 1790 1060" fill="none" xmlns="http://www.w3.org/2000/svg">
<g id="Group 4">
<path id="Vector" d="M1718.2 411.196C1722.65 425.139 1737.56 432.833 1751.5 428.382C1765.45 423.93 1773.14 409.02 1768.69 395.077L1718.2 411.196ZM1399.08 317.961L1385.34 295.299L1384.64 295.723L1383.97 296.19L1399.08 317.961ZM1487.92 743.667L1486.64 770.137L1486.64 770.137L1487.92 743.667ZM1742.3 521.619L1750.16 496.312L1742.3 521.619ZM1600.37 863.764L1626.56 867.784L1626.56 867.784L1600.37 863.764ZM1416.3 842.381C1426.27 831.666 1425.66 814.898 1414.95 804.929C1404.23 794.961 1387.46 795.567 1377.49 806.283L1416.3 842.381ZM796.029 285.579C796.029 300.215 807.894 312.079 822.529 312.079C837.165 312.079 849.029 300.215 849.029 285.579H796.029ZM822.529 231.744L818.928 205.489C805.807 207.289 796.029 218.5 796.029 231.744H822.529ZM822.711 231.719L819.111 205.464L819.109 205.465L822.711 231.719ZM938.132 128.369L964.601 129.659L964.601 129.659L938.132 128.369ZM839.635 27.143L838.648 0.66136L839.635 27.143ZM743.413 145.036C750.234 157.985 766.261 162.953 779.21 156.131C792.158 149.31 797.126 133.284 790.305 120.335L743.413 145.036ZM453.973 812.086C456.615 826.482 470.425 836.01 484.821 833.369C499.216 830.727 508.744 816.917 506.103 802.521L453.973 812.086ZM845.24 308.291L844.882 281.793L845.24 308.291ZM1149.12 798.519C1144.26 812.328 1151.52 827.454 1165.33 832.306C1179.14 837.157 1194.27 829.896 1199.12 816.088L1149.12 798.519ZM468.201 733.702C455.111 740.247 449.805 756.165 456.35 769.255C462.895 782.346 478.813 787.652 491.904 781.107L468.201 733.702ZM1276.36 726.966C1289.63 733.136 1305.39 727.379 1311.56 714.107C1317.73 700.836 1311.97 685.076 1298.7 678.906L1276.36 726.966ZM12.6215 396.405C0.169552 404.096 -3.69016 420.425 4.00061 432.877C11.6914 445.329 28.0203 449.189 40.4722 441.498L12.6215 396.405ZM27.4302 418.406L41.3556 440.952L41.3561 440.952L27.4302 418.406ZM530.204 335.013C543.976 339.965 559.155 332.814 564.107 319.041C569.058 305.269 561.907 290.09 548.134 285.139L530.204 335.013ZM340.989 933.116C344.346 947.361 358.615 956.188 372.861 952.831C387.106 949.475 395.933 935.205 392.577 920.96L340.989 933.116ZM1768.69 395.077C1754.09 349.363 1717.33 288.781 1652.68 257.578C1586.21 225.501 1497.02 227.607 1385.34 295.299L1412.81 340.623C1513.73 279.453 1583.63 283.105 1629.64 305.311C1677.47 328.39 1706.59 374.826 1718.2 411.196L1768.69 395.077ZM1383.97 296.19C1292.56 359.626 1255.31 474.095 1270.99 573.425C1286.92 674.313 1358.55 763.942 1486.64 770.137L1489.2 717.198C1390.71 712.436 1336.1 645.995 1323.34 565.161C1310.34 482.769 1341.95 389.863 1414.19 339.732L1383.97 296.19ZM1486.64 770.137C1547.06 773.059 1599.27 761.2 1642.52 740.96L1620.06 692.957C1584.62 709.539 1541 719.704 1489.2 717.198L1486.64 770.137ZM1642.52 740.96C1707.87 710.38 1752.34 660.865 1773.9 615.364C1784.56 592.877 1790.55 569.372 1788.81 548.484C1787 526.818 1775.88 504.301 1750.16 496.312L1734.44 546.927C1734.77 547.029 1734.76 547.076 1734.61 546.962C1734.45 546.849 1734.42 546.775 1734.5 546.896C1734.71 547.202 1735.66 548.858 1735.99 552.892C1736.7 561.315 1734.28 575.209 1726.01 592.666C1709.71 627.053 1674.22 667.609 1620.06 692.957L1642.52 740.96ZM1750.16 496.312C1726.79 489.054 1706.65 499.439 1692.72 512.333C1679.04 524.998 1667.39 543.283 1657.4 563.021C1637.18 602.946 1619.6 657.264 1605.66 710.213L1656.91 723.705C1670.56 671.86 1687.02 621.843 1704.68 586.963C1713.63 569.299 1721.88 557.565 1728.73 551.227C1732.01 548.183 1734.07 547.245 1734.77 547.009C1735.06 546.912 1735.05 546.955 1734.82 546.959C1734.57 546.964 1734.41 546.919 1734.44 546.927L1750.16 496.312ZM1605.66 710.213C1591.21 765.117 1580.24 820.265 1574.18 859.745L1626.56 867.784C1632.34 830.119 1642.94 776.791 1656.91 723.705L1605.66 710.213ZM1574.18 859.745C1571.85 874.924 1559.15 889.436 1533.49 899.955C1508.34 910.266 1476.18 914.094 1447.85 910.956C1433.8 909.4 1421.66 906.233 1412.36 902.011C1402.89 897.718 1397.91 893.067 1395.64 889.441C1393.86 886.602 1392.69 882.863 1394.43 876.253C1396.4 868.775 1402.27 857.462 1416.3 842.381L1377.49 806.283C1360.07 825.009 1348.17 843.827 1343.18 862.754C1337.97 882.549 1340.66 901.487 1350.7 917.545C1360.26 932.817 1375.05 943.283 1390.46 950.275C1406.02 957.338 1423.86 961.623 1442.02 963.634C1478.1 967.631 1519.31 963.051 1553.6 948.993C1587.38 935.142 1620.19 909.321 1626.56 867.784L1574.18 859.745ZM849.029 285.579V231.744H796.029V285.579H849.029ZM826.131 257.998L826.313 257.973L819.109 205.465L818.928 205.489L826.131 257.998ZM826.311 257.973C841.764 255.854 874.535 251.61 904.031 234.328C935.39 215.954 961.978 183.474 964.601 129.659L911.664 127.079C909.992 161.374 894.634 178.407 877.238 188.599C857.979 199.883 835.187 203.26 819.111 205.464L826.311 257.973ZM964.601 129.659C966.82 84.1252 955.67 48.8077 929.315 26.1894C903.942 4.41322 870.156 -0.512291 838.648 0.66136L840.621 53.6246C866.925 52.6448 884.379 57.4661 894.798 66.4081C904.236 74.508 913.428 90.8801 911.664 127.079L964.601 129.659ZM838.648 0.66136C799.116 2.1339 768.801 25.6734 751.823 53.007C735.476 79.3248 727.87 115.53 743.413 145.036L790.305 120.335C786.558 113.222 786.434 97.7321 796.845 80.9719C806.624 65.2275 822.342 54.3055 840.621 53.6246L838.648 0.66136ZM506.103 802.521C492.382 727.743 514.366 610.355 573.38 510.869C631.985 412.071 723.599 336.437 845.598 334.789L844.882 281.793C698.321 283.774 592.213 375.234 527.796 483.829C463.788 591.736 437.451 722.04 453.973 812.086L506.103 802.521ZM845.598 334.789C939.754 333.516 1014 377.742 1067.44 443.209C1121.29 509.167 1153.13 595.883 1160.65 675.323L1213.42 670.326C1205.02 581.619 1169.7 484.666 1108.5 409.693C1046.9 334.23 958.209 280.262 844.882 281.793L845.598 334.789ZM1160.65 675.323C1165.08 722.062 1160.95 764.847 1149.12 798.519L1199.12 816.088C1214.11 773.414 1218.36 722.583 1213.42 670.326L1160.65 675.323ZM491.904 781.107C542.654 755.732 658.025 724.504 791.446 705.015C924.389 685.596 1070.52 678.543 1182.29 698.896L1191.78 646.753C1071.77 624.898 919.065 632.811 783.785 652.571C648.984 672.262 526.75 704.428 468.201 733.702L491.904 781.107ZM1182.29 698.896C1218.36 705.465 1250.11 714.762 1276.36 726.966L1298.7 678.906C1267.23 664.273 1230.87 653.871 1191.78 646.753L1182.29 698.896ZM40.4722 441.498L41.3556 440.952L13.5049 395.86L12.6215 396.405L40.4722 441.498ZM41.3561 440.952C102.524 403.171 192.514 347.797 297.82 323.794L286.042 272.119C171.073 298.325 74.1974 358.372 13.5044 395.86L41.3561 440.952ZM297.82 323.794C370.153 307.307 449.013 305.824 530.204 335.013L548.134 285.139C455.488 251.831 366.039 253.885 286.042 272.119L297.82 323.794ZM266.474 290.596C260.774 310.307 258.654 341.122 259.01 378.577C259.375 416.912 262.399 464.871 268.301 520.428C280.11 631.585 303.559 774.264 340.989 933.116L392.577 920.96C355.609 764.072 332.559 623.588 321.005 514.829C315.225 460.427 312.352 414.239 312.008 378.072C311.655 341.026 314.015 316.984 317.388 305.318L266.474 290.596Z" fill="white"/>
<path id="Baby Shop" d="M645.977 933.33C646.358 934.701 646.548 936.225 646.548 937.9C646.548 938.891 646.472 939.919 646.32 940.985C645.939 943.804 645.444 946.317 644.834 948.526C643.844 951.878 642.283 955.001 640.15 957.896C638.093 960.79 636.341 963.418 634.894 965.779C635.656 967.227 636.379 968.674 637.065 970.121C637.826 971.568 638.474 973.092 639.007 974.691C639.617 976.291 640.035 977.929 640.264 979.604C640.416 980.519 640.492 981.433 640.492 982.347C640.492 983.261 640.416 984.213 640.264 985.203C639.959 987.488 639.35 989.621 638.436 991.602C637.522 993.506 636.379 995.258 635.008 996.857C633.713 998.381 632.266 999.752 630.666 1000.97C629.143 1002.27 627.619 1003.37 626.096 1004.28C624.496 1004.28 622.668 1004.25 620.612 1004.17C618.631 1004.17 616.651 1004.02 614.67 1003.71C612.766 1003.48 610.938 1003.1 609.186 1002.57C607.51 1002.11 606.139 1001.43 605.073 1000.51C604.387 999.904 603.892 999.143 603.587 998.229C603.435 997.695 603.359 997.2 603.359 996.743C603.359 996.438 603.397 996.134 603.473 995.829C603.625 995.067 604.044 994.458 604.73 994.001C605.187 993.696 605.796 993.544 606.558 993.544C606.939 993.544 607.358 993.582 607.815 993.658C608.272 993.734 608.767 994.001 609.3 994.458C609.909 994.915 610.519 995.41 611.128 995.943C611.814 996.4 612.461 996.896 613.071 997.429C613.756 997.886 614.404 998.152 615.013 998.229C618.593 998.076 621.716 997.733 624.382 997.2C627.124 996.591 629.371 995.029 631.123 992.516C631.885 990.916 632.494 989.088 632.951 987.031C633.256 985.279 633.409 983.527 633.409 981.775V980.861C633.332 978.805 632.951 976.862 632.266 975.034C631.657 973.13 630.742 971.568 629.524 970.35C628.229 970.807 626.743 971.492 625.068 972.406C623.392 973.32 621.602 974.158 619.698 974.92C617.869 975.605 616.041 976.024 614.213 976.177C613.909 976.253 613.604 976.291 613.299 976.291C611.776 976.291 610.328 975.834 608.957 974.92C608.5 974.615 608.043 974.158 607.586 973.549C607.205 972.939 606.863 972.254 606.558 971.492C606.253 970.654 606.063 969.778 605.987 968.864V968.293C605.987 967.607 606.063 966.998 606.215 966.465C606.825 964.713 607.929 963.456 609.529 962.694C611.128 961.933 612.994 961.438 615.127 961.209C616.041 961.133 616.955 961.095 617.869 961.095C619.164 961.095 620.497 961.171 621.868 961.323C624.154 961.628 626.325 961.971 628.381 962.352C631.961 959.686 634.665 956.258 636.493 952.068C638.322 947.803 639.464 942.813 639.921 937.101C639.083 934.892 638.017 932.911 636.722 931.159C635.427 929.331 634.17 927.503 632.951 925.675C630.514 923.618 627.619 922.171 624.268 921.333C621.373 920.724 618.441 920.419 615.47 920.419H613.87C610.29 920.571 606.901 921.219 603.701 922.361C600.502 923.504 597.912 924.989 595.932 926.817C595.094 927.579 594.104 928.646 592.961 930.017C591.819 931.388 591.171 932.606 591.019 933.673V934.358C591.019 935.425 591.285 936.758 591.819 938.357C592.428 940.414 592.923 942.433 593.304 944.413C594.066 947.993 594.866 951.916 595.703 956.182C596.541 960.371 596.998 964.827 597.075 969.55C597.151 972.597 597.227 975.72 597.303 978.919V980.062C597.303 982.956 597.151 985.774 596.846 988.517C596.541 991.716 596.008 994.839 595.246 997.886C594.485 1000.86 593.304 1003.64 591.704 1006.23C589.648 1007.52 587.82 1008.17 586.22 1008.17C585.839 1008.17 585.496 1008.13 585.192 1008.05C583.287 1007.75 581.612 1006.84 580.164 1005.31C578.717 1003.87 577.498 1002.04 576.508 999.828C575.518 997.619 574.756 995.41 574.223 993.201C573.614 991.221 573.004 989.088 572.395 986.803C571.862 984.518 571.443 982.347 571.138 980.29C570.986 979.3 570.909 978.348 570.909 977.434C570.909 976.9 570.948 976.405 571.024 975.948C571.1 974.501 571.252 973.092 571.481 971.721C571.709 970.273 571.938 968.826 572.166 967.379C572.395 965.932 572.547 964.484 572.623 963.037C572.776 960.904 573.118 958.733 573.652 956.524C574.185 954.239 574.794 952.068 575.48 950.012C576.165 947.955 576.851 946.013 577.536 944.185C578.222 942.356 578.869 940.757 579.479 939.386C580.317 938.624 581.117 937.9 581.878 937.215C582.64 936.453 583.249 935.539 583.706 934.473C583.706 932.797 583.364 931.464 582.678 930.474C581.992 929.407 581.231 928.455 580.393 927.617C579.631 926.703 578.831 925.789 577.993 924.875C577.232 923.961 576.737 922.818 576.508 921.447C577.422 920.686 578.298 920.305 579.136 920.305H579.707C580.698 920.533 581.65 921.066 582.564 921.904C583.554 922.666 584.468 923.58 585.306 924.646C586.144 925.637 586.906 926.475 587.591 927.16C590.105 925.104 592.695 923.085 595.361 921.104C598.027 919.124 600.883 917.334 603.93 915.734C606.825 915.125 609.948 914.82 613.299 914.82C614.289 914.82 615.318 914.858 616.384 914.935C620.954 915.163 625.334 915.811 629.524 916.877C631.047 917.943 632.761 918.934 634.665 919.848C636.57 920.686 638.169 921.866 639.464 923.39C639.997 923.999 640.607 924.723 641.292 925.561C641.978 926.398 642.625 927.274 643.235 928.188C643.92 929.026 644.492 929.902 644.949 930.816C645.406 931.73 645.748 932.568 645.977 933.33ZM621.183 966.922H618.326C617.26 966.846 616.27 966.808 615.356 966.808C614.442 966.808 613.604 966.96 612.842 967.265C612.157 967.493 611.738 967.988 611.585 968.75C612.118 969.512 612.918 969.969 613.985 970.121C614.366 970.197 614.746 970.235 615.127 970.235C615.813 970.235 616.498 970.121 617.184 969.893C618.25 969.664 619.164 969.283 619.926 968.75C620.764 968.217 621.183 967.607 621.183 966.922ZM586.449 1002.46C588.429 998.19 589.762 993.392 590.448 988.06C590.905 984.327 591.133 980.519 591.133 976.634C591.133 975.034 591.095 973.396 591.019 971.721C590.714 966.16 590.067 960.676 589.076 955.268C588.086 949.783 586.944 944.756 585.649 940.186C583.821 943.232 582.221 946.774 580.85 950.812C579.479 954.849 578.489 959.076 577.879 963.494C577.27 967.303 576.965 971.149 576.965 975.034C576.965 975.72 577.003 976.405 577.079 977.091C577.156 981.737 577.727 986.117 578.793 990.23C579.098 991.373 579.441 992.554 579.822 993.772C580.279 994.991 580.812 996.172 581.421 997.314C582.031 998.457 582.716 999.485 583.478 1000.4C584.316 1001.31 585.306 1002 586.449 1002.46ZM725.729 995.258C725.5 996.172 725.234 997.01 724.929 997.771C724.624 998.533 724.129 999.066 723.444 999.371C723.063 999.523 722.606 999.6 722.073 999.6C721.692 999.6 721.311 999.562 720.93 999.485C719.864 999.333 718.759 999.028 717.617 998.571C716.474 998.114 715.369 997.581 714.303 996.972C713.313 996.362 712.551 995.791 712.018 995.258C710.951 994.268 710.076 993.125 709.39 991.83C708.781 990.535 708.209 989.24 707.676 987.945C707.143 986.574 706.648 985.317 706.191 984.175C705.81 983.032 705.315 982.118 704.705 981.433C703.867 981.813 703.182 982.309 702.649 982.918C702.116 983.527 701.582 984.213 701.049 984.975C700.592 985.736 700.097 986.536 699.564 987.374C699.107 988.136 698.535 988.821 697.85 989.431C696.25 991.03 694.308 992.478 692.023 993.772C689.814 994.991 687.414 995.943 684.825 996.629C682.616 997.238 680.33 997.543 677.969 997.543C677.588 997.543 677.207 997.505 676.826 997.429C674.084 997.353 671.418 996.743 668.828 995.601C666.162 993.772 663.725 991.449 661.516 988.631C659.383 985.812 657.669 982.689 656.374 979.262C655.079 975.834 654.356 972.178 654.203 968.293C654.127 967.836 654.089 967.379 654.089 966.922C654.089 963.57 654.699 960.143 655.917 956.639C656.374 955.42 656.984 954.087 657.745 952.64C658.583 951.116 659.497 949.669 660.488 948.298C661.478 946.927 662.506 945.67 663.573 944.527C664.715 943.385 665.82 942.471 666.886 941.785C669.628 940.109 672.637 939.005 675.912 938.472C677.664 938.243 679.416 938.129 681.168 938.129C682.616 938.129 684.101 938.205 685.624 938.357C688.9 938.814 692.061 939.69 695.108 940.985C698.231 942.204 701.049 943.728 703.563 945.556C704.248 944.87 705.086 944.146 706.076 943.385C707.143 942.547 708.247 941.861 709.39 941.328C710.38 940.947 711.37 940.757 712.361 940.757H712.932C714.075 940.833 715.179 941.404 716.245 942.471C716.855 944.832 717.159 947.155 717.159 949.44V951.154C716.931 953.973 716.436 956.715 715.674 959.381C714.912 961.971 713.96 964.446 712.818 966.808C711.751 969.169 710.723 971.378 709.733 973.435C710.875 977.015 712.132 980.442 713.503 983.718C714.951 986.993 716.855 989.812 719.216 992.173H720.473C721.692 992.173 722.606 992.325 723.215 992.63C724.053 993.163 724.891 994.039 725.729 995.258ZM710.533 948.184C709.009 950.393 708.171 952.83 708.019 955.496V957.324C708.019 959.457 708.209 961.78 708.59 964.294C709.047 963.38 709.58 962.199 710.19 960.752C710.799 959.229 711.294 957.667 711.675 956.067C711.904 954.772 712.018 953.516 712.018 952.297V951.497C711.942 950.126 711.447 949.021 710.533 948.184ZM702.877 972.635C702.573 969.512 702.268 966.236 701.963 962.809C701.735 960.828 701.62 958.886 701.62 956.981C701.62 955.687 701.659 954.43 701.735 953.211C700.744 951.688 699.411 950.316 697.736 949.098C696.06 947.879 694.232 946.889 692.251 946.127C690.271 945.365 688.176 944.832 685.967 944.527C684.672 944.375 683.453 944.299 682.311 944.299C681.397 944.299 680.483 944.337 679.569 944.413C676.903 944.718 674.579 945.365 672.599 946.355C670.618 947.27 668.867 948.412 667.343 949.783C666.505 951.307 665.591 952.982 664.601 954.811C663.611 956.639 662.735 958.581 661.973 960.638C661.287 962.694 660.792 964.827 660.488 967.036C660.411 967.874 660.373 968.674 660.373 969.436C660.373 970.883 660.526 972.33 660.83 973.777C661.135 974.996 661.592 976.367 662.201 977.891C662.887 979.338 663.649 980.785 664.487 982.232C665.401 983.68 666.353 985.013 667.343 986.231C668.409 987.45 669.438 988.402 670.428 989.088C671.951 990.154 673.742 990.84 675.798 991.145C677.093 991.373 678.464 991.487 679.911 991.487C680.673 991.487 681.435 991.449 682.197 991.373C684.71 990.611 686.919 989.545 688.824 988.174C690.728 986.803 692.48 985.279 694.079 983.604C695.679 981.928 697.164 980.138 698.535 978.233C699.983 976.329 701.43 974.463 702.877 972.635ZM801.139 980.633C800.758 984.67 799.768 988.098 798.168 990.916C796.645 993.658 794.626 996.02 792.113 998C789.675 999.904 786.857 1001.5 783.658 1002.8C780.534 1004.17 777.221 1005.43 773.717 1006.57H772.803C769.375 1006.57 766.328 1006.15 763.662 1005.31C760.692 1004.47 758.026 1003.37 755.664 1002C753.303 1000.63 751.132 999.066 749.152 997.314C747.171 995.562 745.153 993.811 743.096 992.059C742.487 993.201 742.068 994.801 741.839 996.857C741.611 998.838 741.268 1000.7 740.811 1002.46C740.43 1004.21 739.783 1005.5 738.868 1006.34C738.411 1006.65 737.916 1006.8 737.383 1006.8C736.545 1006.8 735.517 1006.46 734.298 1005.77C733.993 1005.01 733.841 1004.28 733.841 1003.6V1003.14C733.917 1002.3 734.032 1001.47 734.184 1000.63C734.336 999.79 734.489 998.914 734.641 998C734.717 997.391 734.755 996.781 734.755 996.172V995.144C735.974 990.116 737.078 984.594 738.069 978.576C739.059 972.559 739.592 966.617 739.668 960.752C739.668 959.381 739.592 958.01 739.44 956.639C739.287 955.268 739.135 953.935 738.983 952.64C738.83 951.269 738.754 949.936 738.754 948.641C738.754 947.422 738.945 946.241 739.326 945.099C738.945 944.108 738.64 942.928 738.411 941.557C738.183 940.109 737.992 938.624 737.84 937.101C737.688 935.501 737.497 933.901 737.269 932.302C737.117 930.626 736.888 929.026 736.583 927.503C736.431 926.36 736.241 925.065 736.012 923.618C735.784 922.78 735.669 921.98 735.669 921.219C735.669 920.762 735.707 920.343 735.784 919.962C735.936 918.896 736.431 918.172 737.269 917.791C737.497 917.715 737.764 917.677 738.069 917.677C738.907 917.677 740.087 918.02 741.611 918.705C742.829 925.027 743.82 931.692 744.581 938.7C745.343 945.708 745.762 952.678 745.838 959.609C747.057 958.391 748.2 957.058 749.266 955.61C750.409 954.163 751.551 952.754 752.694 951.383C753.912 949.936 755.169 948.564 756.464 947.27C757.835 945.975 759.359 944.87 761.034 943.956C763.243 942.813 765.491 942.014 767.776 941.557C769.223 941.328 770.708 941.214 772.232 941.214C772.993 941.214 773.793 941.252 774.631 941.328C776.84 941.557 778.973 942.09 781.03 942.928C783.086 943.689 784.952 944.68 786.628 945.898C788.761 947.422 790.78 949.44 792.684 951.954C794.588 954.468 796.226 957.286 797.597 960.409C798.968 963.456 799.996 966.731 800.682 970.235C801.063 972.597 801.253 974.958 801.253 977.319C801.253 978.462 801.215 979.566 801.139 980.633ZM791.998 988.974C793.522 985.165 794.284 981.318 794.284 977.434V976.52C794.131 972.406 793.369 968.521 791.998 964.865C790.627 961.209 788.761 957.934 786.4 955.039C784.038 952.145 781.449 949.859 778.63 948.184C776.878 947.727 775.241 947.498 773.717 947.498C772.727 947.498 771.813 947.574 770.975 947.727C768.614 948.184 766.481 948.945 764.576 950.012C762.672 951.002 760.882 952.221 759.206 953.668C757.607 955.039 756.083 956.372 754.636 957.667C753.798 959.419 752.77 961.095 751.551 962.694C750.332 964.218 749.19 965.817 748.123 967.493C747.133 969.169 746.409 970.921 745.952 972.749C745.724 973.587 745.61 974.425 745.61 975.263C745.61 976.481 745.8 977.738 746.181 979.033C745.8 979.947 745.61 980.861 745.61 981.775C745.61 981.852 745.648 981.928 745.724 982.004C745.724 982.994 745.876 983.946 746.181 984.86C746.562 985.774 747.019 986.612 747.552 987.374C748.085 988.136 748.657 988.821 749.266 989.431C750.256 990.421 751.437 991.411 752.808 992.401C754.179 993.392 755.55 994.344 756.921 995.258C758.368 996.172 759.778 997.01 761.149 997.771C762.596 998.533 763.853 999.181 764.919 999.714C766.29 999.942 767.623 1000.06 768.918 1000.06C770.213 1000.06 771.508 999.942 772.803 999.714C775.393 999.257 777.868 998.495 780.23 997.429C782.591 996.362 784.762 995.105 786.742 993.658C788.723 992.135 790.475 990.573 791.998 988.974ZM877.235 991.487C878.453 993.011 879.215 994.991 879.52 997.429C879.596 998.267 879.634 999.028 879.634 999.714C879.634 1001.31 879.444 1002.76 879.063 1004.06C878.453 1006.04 877.501 1007.41 876.206 1008.17C875.749 1008.47 875.292 1008.63 874.835 1008.63C873.769 1008.63 872.512 1007.98 871.065 1006.68V1005.77C871.065 1005.24 871.103 1004.78 871.179 1004.4C871.331 1003.87 871.522 1003.33 871.75 1002.8C871.979 1002.27 872.169 1001.73 872.322 1001.2C872.55 1000.74 872.664 1000.17 872.664 999.485C872.588 997.81 872.284 996.477 871.75 995.486C871.293 994.496 870.608 993.734 869.694 993.201C868.78 992.668 867.637 992.287 866.266 992.059C864.895 991.83 863.333 991.64 861.581 991.487C861.429 995.905 861.201 1000.44 860.896 1005.08C860.591 1009.73 860.02 1014.22 859.182 1018.57C858.42 1022.98 857.316 1027.14 855.868 1031.02C854.421 1034.91 852.479 1038.29 850.041 1041.19C847.68 1044.16 844.747 1046.48 841.243 1048.16C837.74 1049.83 833.55 1050.67 828.675 1050.67C825.247 1049.99 822.429 1048.69 820.22 1046.79C818.087 1044.96 816.183 1042.83 814.507 1040.39C813.669 1036.66 813.06 1033 812.679 1029.42C812.603 1028.51 812.565 1027.59 812.565 1026.68C812.565 1023.86 812.984 1020.89 813.822 1017.77C813.974 1017.08 814.279 1016.17 814.736 1015.02C815.193 1013.96 815.688 1012.85 816.221 1011.71C816.754 1010.57 817.326 1009.46 817.935 1008.4C818.544 1007.41 819.077 1006.61 819.534 1006C820.068 1005.31 820.715 1004.78 821.477 1004.4C822.315 1004.02 823.076 1003.52 823.762 1002.91C824.752 1001.92 825.59 1000.82 826.276 999.6C827.037 998.457 828.104 997.391 829.475 996.4C830.313 995.791 831.341 995.22 832.56 994.687C833.779 994.153 834.921 993.582 835.988 992.973C838.882 991.449 841.662 990.23 844.328 989.316C847.071 988.326 850.27 987.374 853.926 986.46C853.926 984.403 853.888 982.271 853.812 980.062C853.812 977.776 853.774 975.529 853.698 973.32C853.621 971.035 853.507 968.826 853.355 966.693C853.202 964.484 853.012 962.428 852.784 960.523C851.717 961.133 850.879 961.895 850.27 962.809C849.66 963.723 849.089 964.713 848.556 965.779C848.099 966.846 847.642 967.912 847.185 968.979C846.728 970.045 846.157 971.035 845.471 971.949C844.709 972.939 843.681 973.815 842.386 974.577C841.167 975.263 839.91 976.062 838.616 976.977C837.321 977.891 836.026 978.843 834.731 979.833C833.436 980.747 832.027 981.547 830.503 982.232C828.98 982.842 827.304 983.223 825.476 983.375C825.095 983.451 824.676 983.489 824.219 983.489C822.696 983.489 821.02 983.223 819.192 982.689C816.907 981.09 815.193 979.147 814.05 976.862C812.908 974.501 812.222 971.949 811.993 969.207C811.841 968.217 811.765 967.15 811.765 966.008C811.765 964.332 811.917 962.58 812.222 960.752C812.603 957.857 813.136 954.963 813.822 952.068C814.583 949.174 815.421 946.394 816.335 943.728C817.249 940.985 818.049 938.548 818.735 936.415C819.573 935.882 820.487 935.615 821.477 935.615C821.858 935.615 822.239 935.653 822.619 935.729C823 936.263 823.381 936.758 823.762 937.215C824.143 937.672 824.524 938.205 824.905 938.814C824.143 941.709 823.153 944.832 821.934 948.184C820.791 951.535 819.877 954.925 819.192 958.353C818.735 960.79 818.506 963.189 818.506 965.551C818.506 966.465 818.544 967.379 818.62 968.293C818.849 971.492 820.03 974.387 822.162 976.977C823 977.129 823.762 977.205 824.448 977.205C824.905 977.205 825.362 977.167 825.819 977.091C826.885 976.938 827.837 976.71 828.675 976.405C829.513 976.024 830.275 975.605 830.96 975.148C831.722 974.615 832.484 974.082 833.245 973.549C834.464 972.711 835.683 972.025 836.902 971.492C838.197 970.883 839.263 970.045 840.101 968.979C841.015 967.912 841.815 966.731 842.5 965.437C843.186 964.065 843.833 962.732 844.443 961.438C845.128 960.143 845.814 958.924 846.499 957.781C847.261 956.562 848.213 955.572 849.356 954.811C850.041 952.068 850.803 949.326 851.641 946.584C852.403 944.146 852.784 941.557 852.784 938.814V938.015C853.621 937.634 854.459 937.253 855.297 936.872C855.754 936.644 856.211 936.529 856.668 936.529C857.125 936.529 857.582 936.644 858.039 936.872C858.649 937.71 859.068 938.7 859.296 939.843C859.601 940.909 859.791 942.09 859.867 943.385V944.299C859.867 945.289 859.829 946.279 859.753 947.27C859.601 948.564 859.449 949.783 859.296 950.926C859.525 953.516 859.677 956.105 859.753 958.695C859.829 961.285 859.906 963.951 859.982 966.693C860.058 969.436 860.134 972.254 860.21 975.148C860.286 978.043 860.477 981.052 860.782 984.175C861.772 984.403 862.61 984.632 863.295 984.86C864.057 985.013 864.781 985.203 865.466 985.432C866.152 985.584 866.875 985.736 867.637 985.889C868.399 986.041 869.313 986.155 870.379 986.231C870.912 986.688 871.446 987.069 871.979 987.374C872.512 987.679 873.045 987.983 873.578 988.288C874.188 988.593 874.759 989.012 875.292 989.545C875.902 990.002 876.549 990.649 877.235 991.487ZM854.269 997.2C854.269 996.972 854.307 996.629 854.383 996.172C854.459 995.715 854.497 995.258 854.497 994.801C854.497 994.344 854.383 993.963 854.155 993.658C854.002 993.277 853.659 993.049 853.126 992.973C852.212 993.354 851.298 993.696 850.384 994.001C849.546 994.306 848.67 994.572 847.756 994.801C846.842 994.953 845.89 995.144 844.9 995.372C843.986 995.524 843.148 995.753 842.386 996.058C841.777 996.362 841.053 996.819 840.215 997.429C839.453 998.038 838.654 998.609 837.816 999.143C836.673 999.828 835.454 1000.59 834.159 1001.43C832.865 1002.27 831.608 1003.14 830.389 1004.06C829.246 1004.97 828.142 1005.92 827.076 1006.91C826.009 1007.9 825.133 1008.85 824.448 1009.77C823.381 1011.29 822.429 1013.16 821.591 1015.37C820.753 1017.58 820.106 1019.9 819.649 1022.34C819.268 1024.47 819.077 1026.6 819.077 1028.74V1029.76C819.154 1032.28 819.573 1034.56 820.334 1036.62C821.096 1038.68 822.239 1040.39 823.762 1041.76C825.285 1043.13 827.304 1043.93 829.818 1044.16C830.503 1044.24 831.151 1044.27 831.76 1044.27C834.198 1044.27 836.33 1043.78 838.159 1042.79C840.367 1041.65 842.272 1040.12 843.871 1038.22C845.471 1036.31 846.804 1034.18 847.87 1031.82C849.013 1029.54 850.117 1027.4 851.184 1025.42C852.022 1021.08 852.784 1016.55 853.469 1011.83C854.002 1008.02 854.269 1004.06 854.269 999.942V997.2ZM968.984 929.217C969.365 930.893 969.555 932.53 969.555 934.13C969.555 934.815 969.517 935.501 969.441 936.187C969.212 938.472 968.603 940.528 967.613 942.356C966.699 944.108 965.442 945.556 963.842 946.698C962.319 947.765 960.491 948.298 958.358 948.298C957.52 947.993 957.025 947.498 956.872 946.812C956.796 946.127 956.758 945.594 956.758 945.213C956.834 944.527 957.025 944.032 957.329 943.728C957.71 943.423 958.129 943.194 958.586 943.042C959.043 942.813 959.5 942.623 959.957 942.471C960.491 942.242 960.948 941.899 961.328 941.442C961.633 941.138 961.938 940.681 962.242 940.071C962.623 939.386 962.928 938.7 963.157 938.015C963.461 937.329 963.69 936.644 963.842 935.958C963.994 935.272 964.071 934.663 964.071 934.13C963.994 932.835 963.423 931.616 962.357 930.474C961.367 929.255 960.11 928.188 958.586 927.274C957.139 926.284 955.539 925.522 953.787 924.989C952.112 924.38 950.588 923.999 949.217 923.847C948.608 923.771 947.998 923.732 947.389 923.732C945.713 923.732 944.114 923.961 942.59 924.418C940.457 925.027 938.629 925.979 937.106 927.274C935.582 928.569 934.44 930.169 933.678 932.073C933.221 933.216 932.992 934.396 932.992 935.615C932.992 936.605 933.145 937.634 933.45 938.7C935.354 942.052 937.677 944.984 940.419 947.498C943.238 949.936 946.132 952.335 949.103 954.696C952.074 956.981 954.93 959.381 957.672 961.895C960.491 964.332 962.89 967.188 964.87 970.464C965.784 972.521 966.508 974.844 967.041 977.434C967.651 980.023 967.955 982.613 967.955 985.203C967.955 987.869 967.536 990.383 966.699 992.744C965.861 995.029 964.49 996.896 962.585 998.343C961.138 999.409 959.424 1000.36 957.444 1001.2C955.539 1002.11 953.559 1002.88 951.502 1003.48C949.446 1004.09 947.427 1004.55 945.447 1004.86C943.771 1005.08 942.285 1005.2 940.991 1005.2H939.962C938.591 1005.12 937.182 1004.7 935.735 1003.94C934.287 1003.26 932.916 1002.34 931.621 1001.2C930.403 1000.13 929.222 998.99 928.079 997.771C927.013 996.553 926.137 995.448 925.451 994.458C924.918 993.696 924.309 993.011 923.623 992.401C923.014 991.792 922.633 991.221 922.481 990.688C922.024 989.469 921.795 988.25 921.795 987.031C921.795 986.498 921.833 986.003 921.909 985.546C922.138 983.794 922.633 982.156 923.395 980.633C924.233 979.033 925.185 977.586 926.251 976.291C927.394 974.996 928.536 973.93 929.679 973.092C932.269 973.473 933.754 974.158 934.135 975.148C934.211 975.453 934.249 975.758 934.249 976.062C934.249 976.824 933.983 977.624 933.45 978.462C932.688 979.757 931.698 981.052 930.479 982.347C929.336 983.565 928.575 984.67 928.194 985.66C928.498 987.412 928.993 988.936 929.679 990.23C930.441 991.449 931.317 992.554 932.307 993.544C933.373 994.534 934.516 995.41 935.735 996.172C937.03 996.934 938.325 997.657 939.619 998.343C940.686 998.419 941.676 998.457 942.59 998.457C943.657 998.457 944.685 998.381 945.675 998.229C947.351 998 948.912 997.619 950.36 997.086C951.807 996.477 953.14 995.829 954.359 995.144C955.654 994.382 956.987 993.658 958.358 992.973C960.186 990.688 961.214 988.25 961.443 985.66V984.289C961.443 982.156 961.062 980.023 960.3 977.891C959.386 975.377 958.091 973.016 956.415 970.807C954.816 968.521 953.178 966.617 951.502 965.094C950.817 964.484 950.131 963.799 949.446 963.037C948.836 962.275 948.227 961.704 947.617 961.323C945.18 959.495 942.704 957.781 940.191 956.182C937.677 954.506 935.43 952.64 933.45 950.583C932.383 949.44 931.317 948.031 930.25 946.355C929.184 944.68 928.27 942.852 927.508 940.871C926.823 938.891 926.442 936.796 926.366 934.587V934.13C926.366 932.073 926.823 930.055 927.737 928.074C928.27 926.932 928.993 925.979 929.908 925.218C930.822 924.38 931.812 923.618 932.878 922.933C934.021 922.247 935.125 921.562 936.192 920.876C937.334 920.19 938.363 919.391 939.277 918.477C941.79 918.02 944.114 917.791 946.246 917.791C947.237 917.791 948.189 917.829 949.103 917.905C952.074 918.21 954.778 918.896 957.215 919.962C959.729 920.952 961.938 922.285 963.842 923.961C965.746 925.561 967.46 927.312 968.984 929.217ZM1035.48 969.321V970.578C1035.48 973.168 1035.29 975.758 1034.91 978.348C1034.45 981.395 1033.88 984.403 1033.2 987.374C1032.51 990.269 1031.75 993.125 1030.91 995.943C1030.07 998.686 1029.31 1001.28 1028.63 1003.71C1027.86 1003.87 1027.18 1004.06 1026.57 1004.28C1026.19 1004.44 1025.73 1004.51 1025.2 1004.51C1024.89 1004.51 1024.51 1004.47 1024.06 1004.4C1023.6 1004.02 1023.18 1003.56 1022.8 1003.03C1022.49 1002.57 1022.15 1002.15 1021.77 1001.77C1022.84 998.724 1023.9 995.334 1024.97 991.602C1026.11 987.869 1026.99 984.061 1027.6 980.176C1028.05 977.205 1028.28 974.272 1028.28 971.378V968.636C1028.05 964.903 1027.14 961.438 1025.54 958.238C1024.25 956.867 1022.76 955.648 1021.09 954.582C1019.49 953.516 1017.66 952.678 1015.6 952.068C1012.78 952.525 1010.19 953.097 1007.83 953.782C1005.47 954.468 1003.38 955.687 1001.55 957.438C998.957 959.952 997.015 963.228 995.72 967.265C994.425 971.302 993.473 975.682 992.864 980.404C992.254 985.127 991.835 989.964 991.607 994.915C991.378 999.79 990.997 1004.36 990.464 1008.63C989.093 1009.54 987.989 1010 987.151 1010C986.922 1010 986.732 1009.96 986.579 1009.88C985.665 1009.65 984.98 1009.01 984.523 1007.94C984.142 1006.95 983.951 1005.66 983.951 1004.06C983.951 1002.53 984.028 1000.93 984.18 999.257C984.332 997.581 984.485 996.02 984.637 994.572C984.866 993.049 985.018 991.868 985.094 991.03C985.399 986.46 985.589 981.737 985.665 976.862V972.063C985.665 968.94 985.627 965.817 985.551 962.694C985.399 958.048 985.17 953.63 984.866 949.44C984.637 945.175 984.37 941.328 984.066 937.9C983.304 936.605 982.923 934.815 982.923 932.53C982.923 930.245 982.809 927.846 982.58 925.332C982.428 924.037 982.161 922.666 981.781 921.219C981.4 919.771 981.209 918.515 981.209 917.448C981.209 916.382 981.628 915.582 982.466 915.049C982.847 914.82 983.418 914.706 984.18 914.706C985.018 914.706 986.084 914.858 987.379 915.163C988.217 918.438 988.903 921.942 989.436 925.675C989.969 929.407 990.388 933.254 990.693 937.215C990.997 941.1 991.226 945.022 991.378 948.983C991.607 952.868 991.835 956.677 992.064 960.409C993.13 957.438 994.92 954.811 997.434 952.525C999.948 950.24 1002.84 948.526 1006.12 947.384C1008.78 946.47 1011.56 946.013 1014.46 946.013H1016.63C1020.29 946.317 1023.79 947.574 1027.14 949.783C1029.2 952.525 1031.06 955.458 1032.74 958.581C1034.49 961.628 1035.41 965.208 1035.48 969.321ZM1109.41 960.98C1110.02 964.256 1110.32 967.303 1110.32 970.121C1110.32 972.787 1110.05 975.263 1109.52 977.548C1108.38 982.347 1106.36 986.422 1103.47 989.773C1100.65 993.125 1097.07 995.829 1092.72 997.886C1088.46 999.866 1083.81 1001.31 1078.79 1002.23C1073.68 1002.08 1069 1001.43 1064.73 1000.29C1060.54 999.143 1056.85 997.353 1053.65 994.915C1052.28 993.925 1051.14 992.744 1050.22 991.373C1049.38 989.926 1048.62 988.44 1047.94 986.917C1047.25 985.394 1046.56 983.832 1045.88 982.232C1045.27 980.557 1044.55 978.919 1043.71 977.319C1044.32 973.511 1044.93 969.74 1045.54 966.008C1046.15 962.275 1047.06 958.81 1048.28 955.61C1050.03 953.478 1052.05 951.345 1054.33 949.212C1056.62 947.079 1059.13 945.213 1061.88 943.613C1064.62 941.938 1067.55 940.681 1070.67 939.843C1072.81 939.233 1075.01 938.929 1077.3 938.929C1078.29 938.929 1079.32 939.005 1080.39 939.157C1081.6 939.31 1083.01 939.614 1084.61 940.071C1086.29 940.528 1087.93 941.062 1089.53 941.671C1091.2 942.28 1092.76 942.966 1094.21 943.728C1095.73 944.489 1096.95 945.251 1097.87 946.013C1098.63 946.698 1099.31 947.422 1099.92 948.184C1100.53 948.945 1101.1 949.745 1101.64 950.583C1102.25 951.345 1102.89 952.068 1103.58 952.754C1104.34 953.439 1105.26 954.011 1106.32 954.468C1106.85 955.534 1107.31 956.677 1107.69 957.896C1108.15 959.038 1108.72 960.066 1109.41 960.98ZM1103.69 977.776C1103.92 976.405 1104.04 975.034 1104.04 973.663C1104.04 972.597 1104 971.492 1103.92 970.35C1103.54 967.76 1103.31 965.246 1103.24 962.809C1102.09 962.047 1101.1 961.095 1100.27 959.952C1099.43 958.81 1098.63 957.629 1097.87 956.41C1097.1 955.191 1096.3 954.011 1095.47 952.868C1094.71 951.726 1093.75 950.735 1092.61 949.897C1090.17 948.983 1087.85 948.031 1085.64 947.041C1083.51 945.975 1081.22 945.403 1078.79 945.327H1078.1C1075.05 945.327 1072.46 945.822 1070.33 946.812C1067.97 947.879 1065.72 949.136 1063.59 950.583C1062.07 951.649 1060.69 952.64 1059.48 953.554C1058.26 954.468 1057.15 955.458 1056.16 956.524C1055.25 957.591 1054.41 958.771 1053.65 960.066C1052.89 961.285 1052.24 962.732 1051.71 964.408C1051.02 967.303 1050.68 970.045 1050.68 972.635C1050.68 974.539 1050.87 976.367 1051.25 978.119C1052.16 982.232 1053.95 985.812 1056.62 988.859C1058.22 989.697 1059.89 990.611 1061.65 991.602C1063.4 992.516 1065.23 993.354 1067.13 994.115C1069.11 994.801 1071.13 995.296 1073.19 995.601C1074.25 995.829 1075.36 995.943 1076.5 995.943C1077.49 995.943 1078.52 995.867 1079.59 995.715C1082.18 995.334 1084.8 994.61 1087.47 993.544C1090.14 992.478 1092.57 991.145 1094.78 989.545C1096.99 987.945 1098.89 986.155 1100.49 984.175C1102.09 982.194 1103.16 980.062 1103.69 977.776ZM1186.3 984.746C1186 985.203 1185.58 985.774 1185.05 986.46C1184.59 987.146 1184.05 987.831 1183.45 988.517C1182.91 989.202 1182.38 989.85 1181.85 990.459C1181.31 990.992 1180.82 991.411 1180.36 991.716C1179.98 991.944 1179.41 992.211 1178.65 992.516C1177.96 992.744 1177.2 993.011 1176.36 993.315C1175.52 993.544 1174.65 993.772 1173.73 994.001C1172.9 994.229 1172.17 994.42 1171.56 994.572C1171.18 994.648 1170.84 994.839 1170.53 995.144C1170.31 995.372 1170.08 995.524 1169.85 995.601H1169.51C1169.13 995.601 1168.82 995.524 1168.59 995.372C1168.29 995.296 1167.91 995.258 1167.45 995.258H1166.99C1166.23 995.334 1165.47 995.524 1164.71 995.829C1164.02 996.134 1163.37 996.286 1162.76 996.286C1161.7 996.286 1160.4 996.058 1158.88 995.601C1157.36 995.144 1156.06 994.687 1155 994.229C1154.16 993.772 1153.43 993.201 1152.82 992.516C1152.22 991.754 1151.42 991.03 1150.43 990.345C1149.51 989.659 1148.64 989.088 1147.8 988.631C1147.04 988.098 1146.39 987.564 1145.85 987.031C1145.32 986.422 1145.05 985.698 1145.05 984.86L1144.94 984.746C1144.94 983.908 1145.25 982.842 1145.85 981.547C1146.62 981.318 1147.3 981.204 1147.91 981.204C1148.6 981.204 1149.21 981.318 1149.74 981.547C1150.73 982.156 1151.64 982.956 1152.48 983.946C1153.32 984.86 1154.16 985.812 1155 986.803C1155.91 987.793 1156.98 988.479 1158.19 988.859C1160.48 989.621 1162.69 990.002 1164.82 990.002C1166.19 990.002 1167.53 989.812 1168.82 989.431C1172.1 988.669 1174.91 987.222 1177.28 985.089C1179.71 982.88 1181.62 980.176 1182.99 976.977C1184.44 973.777 1185.2 970.388 1185.27 966.808V966.008C1185.27 963.799 1185.01 961.78 1184.47 959.952C1183.86 957.972 1183.06 956.144 1182.07 954.468C1181.08 952.792 1179.94 951.269 1178.65 949.897C1177.35 948.45 1176.06 947.041 1174.76 945.67C1171.18 943.766 1167.64 942.813 1164.14 942.813C1163.68 942.813 1163.22 942.852 1162.76 942.928C1158.8 943.232 1154.96 944.261 1151.22 946.013C1148.71 947.155 1146.24 948.374 1143.8 949.669C1141.36 950.888 1139.38 952.487 1137.86 954.468C1138.69 958.505 1139.46 962.694 1140.14 967.036C1140.9 971.302 1141.47 975.644 1141.86 980.062C1142.08 983.413 1142.2 986.803 1142.2 990.23V993.658C1142.05 998.305 1141.51 1002.95 1140.6 1007.6C1140.29 1009.2 1140.03 1010.83 1139.8 1012.51C1139.57 1014.19 1139.3 1015.79 1139 1017.31C1138.77 1018.91 1138.43 1020.39 1137.97 1021.77C1137.59 1023.14 1137.06 1024.36 1136.37 1025.42C1135.46 1026.79 1134.16 1027.94 1132.49 1028.85C1130.81 1029.76 1129.1 1030.3 1127.35 1030.45H1126.55C1125.1 1030.45 1123.76 1030.11 1122.55 1029.42C1121.02 1028.66 1120.03 1027.21 1119.58 1025.08C1118.2 1019.06 1117.48 1012.82 1117.4 1006.34V1005.08C1117.4 999.066 1117.9 993.163 1118.89 987.374C1119.88 981.128 1121.4 975.187 1123.46 969.55C1125.52 963.913 1127.95 958.886 1130.77 954.468C1130.77 952.868 1130.32 951.23 1129.4 949.555C1128.56 947.879 1127.76 946.279 1127 944.756C1126.24 943.232 1125.82 941.747 1125.75 940.3C1125.67 940.224 1125.63 940.147 1125.63 940.071C1125.63 938.776 1126.28 937.596 1127.57 936.529C1128.11 936.91 1128.72 937.139 1129.4 937.215C1130.16 937.291 1130.73 937.52 1131.12 937.9C1131.5 939.881 1132.07 941.671 1132.83 943.271C1133.67 944.794 1134.51 946.279 1135.34 947.727C1136.49 947.346 1137.55 946.851 1138.54 946.241C1139.53 945.556 1140.52 944.87 1141.51 944.185C1142.58 943.499 1143.61 942.852 1144.6 942.242C1145.66 941.633 1146.81 941.138 1148.03 940.757C1148.41 940.604 1148.83 940.528 1149.28 940.528H1149.63C1149.7 940.604 1149.82 940.643 1149.97 940.643C1150.35 940.643 1150.77 940.566 1151.22 940.414C1152.22 940.033 1153.21 939.576 1154.2 939.043C1155.26 938.51 1156.37 938.053 1157.51 937.672C1158.73 937.215 1160.06 936.834 1161.51 936.529C1162.19 936.453 1162.99 936.415 1163.91 936.415C1164.67 936.415 1165.47 936.453 1166.31 936.529C1168.82 937.215 1170.99 937.9 1172.82 938.586C1174.65 939.195 1176.29 939.957 1177.73 940.871C1179.26 941.785 1180.67 942.89 1181.96 944.185C1183.26 945.403 1184.59 946.965 1185.96 948.869C1187.64 951.23 1188.93 953.896 1189.84 956.867C1190.83 959.762 1191.37 962.771 1191.44 965.894V966.351C1191.44 969.397 1191.06 972.444 1190.3 975.491C1189.46 978.69 1188.13 981.775 1186.3 984.746ZM1135 1005.77C1135.38 1002.8 1135.69 999.562 1135.91 996.058C1135.99 993.62 1136.03 991.183 1136.03 988.745V985.774C1135.95 982.347 1135.8 979.109 1135.57 976.062C1135.34 973.016 1135.04 970.388 1134.66 968.179C1134.43 966.96 1134.05 965.741 1133.51 964.522C1132.98 963.304 1132.64 962.656 1132.49 962.58C1132.33 962.656 1132.22 962.809 1132.14 963.037C1132.07 963.266 1131.95 963.456 1131.8 963.608C1130.51 966.655 1129.25 970.121 1128.03 974.006C1126.81 977.891 1125.75 981.966 1124.83 986.231C1123.92 990.497 1123.27 994.839 1122.89 999.257C1122.58 1001.85 1122.43 1004.4 1122.43 1006.91C1122.43 1008.66 1122.51 1010.42 1122.66 1012.17C1122.81 1014.3 1123.16 1016.51 1123.69 1018.79C1124.3 1021.08 1125.48 1022.95 1127.23 1024.39C1128.6 1024.17 1129.71 1023.4 1130.54 1022.11C1131.46 1020.81 1132.18 1019.25 1132.72 1017.42C1133.32 1015.67 1133.78 1013.73 1134.09 1011.6C1134.47 1009.54 1134.77 1007.6 1135 1005.77Z" fill="white"/>
</g>
</svg>
